<svg xmlns="http://www.w3.org/2000/svg" width="24" height="22.909" viewBox="0 0 24 22.909"><defs><style>.a{fill:#808d93;}</style></defs><path class="a" d="M22.818,20.545v1.091H3.182V20.545l2.182-2.182V11.818A7.626,7.626,0,0,1,10.818,4.5V4.182a2.182,2.182,0,1,1,4.364,0V4.5a7.626,7.626,0,0,1,5.455,7.32v6.545l2.182,2.182m-7.636,2.182a2.182,2.182,0,1,1-4.364,0M21.455,3.3,19.905,4.847a9.8,9.8,0,0,1,2.913,6.971H25A11.957,11.957,0,0,0,21.455,3.3M1,11.818H3.182A9.8,9.8,0,0,1,6.095,4.847L4.545,3.3A11.957,11.957,0,0,0,1,11.818Z" transform="translate(-1 -2)"/></svg>