<svg xmlns="http://www.w3.org/2000/svg" width="24" height="22" viewBox="0 0 24 22"><defs><style>.a{fill:#808d93;}</style></defs><path class="a" d="M15,5.4a1.234,1.234,0,0,1-1.333-1.1A1.234,1.234,0,0,1,15,3.2a1.234,1.234,0,0,1,1.333,1.1A1.234,1.234,0,0,1,15,5.4m1.333,9.9H13.667V8.7h2.667m0,11H13.667V17.5h2.667m8-14.3H18.76A4.039,4.039,0,0,0,15,1a4.039,4.039,0,0,0-3.76,2.2H5.667A2.467,2.467,0,0,0,3,5.4V20.8A2.467,2.467,0,0,0,5.667,23H24.333A2.467,2.467,0,0,0,27,20.8V5.4A2.467,2.467,0,0,0,24.333,3.2Z" transform="translate(-3 -1)"/></svg>