<svg xmlns="http://www.w3.org/2000/svg" width="23.259" height="24" viewBox="0 0 23.259 24"><defs><style>.a,.b{fill:#808d93;}.c,.d{stroke:none;}.d{fill:#fff;}</style></defs><g transform="translate(-5.754 0)"><g transform="translate(5.754 0)"><g transform="translate(0 0)"><path class="a" d="M28.352,8.053a.438.438,0,0,0-.2-.107L21.174,6.334,17.492.213a.438.438,0,0,0-.752,0L13.056,6.334,6.091,7.945a.438.438,0,0,0-.232.711l4.686,5.4L9.914,21.18a.435.435,0,0,0,.605.44l6.038-2.554-2.086-2.4a1.264,1.264,0,0,1,.672-2.06l3.783-.875,2-3.322a1.269,1.269,0,0,1,1.733-.435,1.249,1.249,0,0,1,.438.44l1.545,2.559,3.731-4.3A.438.438,0,0,0,28.352,8.053Z" transform="translate(-5.754 0)"/></g></g><g transform="translate(14.985 10.624)"><g class="b" transform="translate(-149.154 -165.04)"><path class="c" d="M 152.1789093017578 177.8783111572266 L 152.5354766845703 173.770263671875 L 152.5538177490234 173.5588836669922 L 152.4145355224609 173.3988037109375 L 149.7065734863281 170.2867889404297 L 153.7232666015625 169.3579406738281 L 153.9292144775391 169.3103179931641 L 154.0385589599609 169.12939453125 L 156.1725006103516 165.5979461669922 L 158.2958526611328 169.1284942626953 L 158.4051208496094 169.3101806640625 L 158.6116790771484 169.3579406738281 L 162.6289672851563 170.2869262695313 L 159.9277191162109 173.3993072509766 L 159.7887725830078 173.5593872070313 L 159.8072357177734 173.7705688476563 L 160.166259765625 177.8781280517578 L 156.3649749755859 176.2689056396484 L 156.169921875 176.1863250732422 L 155.9748992919922 176.2690124511719 L 152.1789093017578 177.8783111572266 Z"/><path class="d" d="M 156.1714935302734 166.5663909912109 L 154.4664916992188 169.3879852294922 L 154.2478332519531 169.7498321533203 L 153.8359069824219 169.8450927734375 L 150.6300964355469 170.58642578125 L 152.7917327880859 173.0705871582031 L 153.0702972412109 173.3907318115234 L 153.0335998535156 173.8135070800781 L 152.7489013671875 177.0935821533203 L 155.7797393798828 175.8086700439453 L 156.1697845458984 175.6433258056641 L 156.5599060058594 175.8084716796875 L 159.5957946777344 177.0936737060547 L 159.3091278076172 173.8141174316406 L 159.272216796875 173.3917541503906 L 159.5501098632813 173.0715637207031 L 161.7066192626953 170.5868377685547 L 158.4990386962891 169.8450927734375 L 158.0859069824219 169.7495574951172 L 157.8673858642578 169.3861846923828 L 156.1714935302734 166.5663909912109 M 156.1721954345703 165.0395202636719 C 156.3212738037109 165.0395355224609 156.4666290283203 165.1157379150391 156.5485534667969 165.2530822753906 L 158.7243347167969 168.8708038330078 L 162.8441619873047 169.8235015869141 C 162.9190979003906 169.8410797119141 162.9880981445313 169.8780975341797 163.0441741943359 169.9308776855469 C 163.2202301025391 170.0965728759766 163.2287292480469 170.3735656738281 163.0630340576172 170.5496215820313 L 160.3053283691406 173.7270355224609 L 160.6735382080078 177.9395599365234 C 160.6808776855469 178.0236968994141 160.6637573242188 178.108154296875 160.6241607666016 178.1827545166016 C 160.5455780029297 178.3309783935547 160.3939361572266 178.41552734375 160.2370910644531 178.41552734375 C 160.1679382324219 178.41552734375 160.0977478027344 178.3990783691406 160.0323944091797 178.3644104003906 L 156.1700592041016 176.7293548583984 L 152.2768249511719 178.3798675537109 C 152.2223968505859 178.4032745361328 152.1639404296875 178.4152221679688 152.1049957275391 178.4152221679688 C 152.0914916992188 178.4152221679688 152.0779571533203 178.4145965576172 152.064453125 178.4133453369141 C 151.8251800537109 178.3909301757813 151.6493225097656 178.1788330078125 151.6717224121094 177.9395599365234 L 152.037353515625 173.7270355224609 L 149.2590484619141 170.5341796875 C 149.2136688232422 170.481201171875 149.1816101074219 170.4181823730469 149.1655731201172 170.3502655029297 C 149.1098937988281 170.114990234375 149.2555084228516 169.8791961669922 149.4907836914063 169.8235015869141 L 153.6106109619141 168.8708038330078 L 155.7966918945313 165.2530822753906 C 155.8338928222656 165.1907043457031 155.8860473632813 165.1385650634766 155.9484252929688 165.1013488769531 C 156.0186767578125 165.0594635009766 156.0959167480469 165.0395202636719 156.1721954345703 165.0395202636719 Z"/></g></g></g></svg>