<svg xmlns="http://www.w3.org/2000/svg" width="24" height="22.737" viewBox="0 0 24 22.737"><defs><style>.a{fill:#808d93;}</style></defs><path class="a" d="M25.737,21.947v1.263a2.526,2.526,0,0,1-2.526,2.526H5.526A2.526,2.526,0,0,1,3,23.211V5.526A2.526,2.526,0,0,1,5.526,3H23.211a2.526,2.526,0,0,1,2.526,2.526V6.789H14.368a2.526,2.526,0,0,0-2.526,2.526V19.421a2.526,2.526,0,0,0,2.526,2.526m0-2.526H27V9.316H14.368m5.053,6.947a1.895,1.895,0,1,1,1.895-1.895A1.895,1.895,0,0,1,19.421,16.263Z" transform="translate(-3 -3)"/></svg>